<svg xmlns:dc="http://purl.org/dc/elements/1.1/" xmlns:cc="http://creativecommons.org/ns#" xmlns:rdf="http://www.w3.org/1999/02/22-rdf-syntax-ns#" xmlns:svg="http://www.w3.org/2000/svg" xmlns="http://www.w3.org/2000/svg" version="1.1" width="60.506195" height="71.268982" id="svg2">
  <metadata id="metadata8">
    <rdf:RDF>
      <cc:Work rdf:about="">
        <dc:format>image/svg+xml</dc:format>
        <dc:type rdf:resource="http://purl.org/dc/dcmitype/StillImage"/>
        <dc:title/>
      </cc:Work>
    </rdf:RDF>
  </metadata>
  <defs id="defs6"/>
  <g transform="matrix(-0.02870387,0,0,0.02870387,-19.460863,-110.16905)" id="g2995" style="stroke:#000000;stroke-opacity:1">
    <g transform="matrix(0.5,0.8660254,-0.8660254,0.5,4126.145,3849.6108)" id="g3123" style="stroke:#000000;stroke-width:209.03105164;stroke-miterlimit:4;stroke-opacity:1;stroke-dasharray:none"/>
    <path d="m -1134.1582,3872.6788 c -116.076,-69.2011 -266.605,-31.2191 -335.8775,84.9766 -69.2725,116.1957 -30.951,266.3593 85.155,335.5783 115.9862,69.1475 266.1452,31.31 335.3998,-84.8558 69.27251,-116.1957 31.3089,-266.5515 -84.6773,-335.6991 z m -1068.5606,294.3524 a 104.52598,104.52598 0 0 0 -104.5937,104.4376 l -0.25,385.5624 a 104.52598,104.52598 0 1 0 209.0313,0.125 l 0.1874,-281.0312 281.6876,0.125 50.7187,119.125 2.4063,5.625 -341.375,563.8438 A 104.52598,104.52598 0 0 0 -2120,5117.6875 l -6.6562,555.2187 -553.2813,0 a 104.52598,104.52598 0 1 0 0,209.0313 l 656.5313,0 a 104.52598,104.52598 0 0 0 104.5,-103.25 l 5.875,-489.9375 a 104.52598,104.52598 0 0 0 9.8437,-3.9062 104.52598,104.52598 0 0 0 36.1563,39.4374 l 456.875,291.5 0,599.25 a 104.52598,104.52598 0 1 0 209.0312,0 l 0,-656.5312 a 104.52598,104.52598 0 0 0 -48.2812,-88.125 l -419.375,-267.5625 288.5624,-479.5 8.75,-0.7813 97.5938,-8.625 -0.1875,341.0313 a 104.52598,104.52598 0 0 0 104.4687,104.5937 l 385.5313,0.2188 a 104.52598,104.52598 0 1 0 0.15625,-209.0312 l -281.06255,-0.1563 0.1876,-350.75 a 104.52598,104.52598 0 0 0 -52.9376,-90.9375 l -578.2812,-328 a 104.52598,104.52598 0 0 0 -51.5,-13.625 l -455.2188,-0.2188 z" id="path3989" style="font-size:medium;font-style:normal;font-variant:normal;font-weight:normal;font-stretch:normal;text-indent:0;text-align:start;text-decoration:none;line-height:normal;letter-spacing:normal;word-spacing:normal;text-transform:none;direction:ltr;block-progression:tb;writing-mode:lr-tb;text-anchor:start;baseline-shift:baseline;color:#000000;fill:#000000;fill-opacity:1;stroke:none;stroke-width:209.03105164;marker:none;visibility:visible;display:inline;overflow:visible;enable-background:accumulate;font-family:Sans;-inkscape-font-specification:Sans"/>
  </g>
</svg>