<svg xmlns="http://www.w3.org/2000/svg" xmlns:xlink="http://www.w3.org/1999/xlink" version="1.1" x="0px" y="0px" width="100px" height="100px" viewBox="0 0 100 100" enable-background="new 0 0 100 100" xml:space="preserve">
<g id="Layer_1">
</g>
<g id="Isolation_Mode">
	<g>
		<path d="M31.524,42.103c-0.725-2.99-5.178-1.794-5.178-1.794s-4.506,0.977-3.783,3.966c0.044,0.176,0.154,0.626,0.154,0.626    s1.181-1.214,4.267-1.962c3.088-0.749,4.692-0.211,4.692-0.211S31.575,42.31,31.524,42.103z"/>
		<path d="M43.246,48.387c0,0-1.529,2.339-5.928,3.394c-4.4,1.056-6.837-0.327-6.837-0.327s0.218,0.891,0.326,1.332    c1.55,6.356,7.876,4.592,7.876,4.592s6.438-1.301,4.887-7.658C43.479,49.344,43.246,48.387,43.246,48.387z"/>
		<path d="M46.992,38.353c-0.725-2.989-5.179-1.796-5.179-1.796s-4.506,0.978-3.782,3.968c0.044,0.177,0.152,0.625,0.152,0.625    s1.181-1.211,4.269-1.96c3.087-0.749,4.691-0.212,4.691-0.212S47.042,38.561,46.992,38.353z"/>
		<path d="M99.439,55.861c0,0-6.404-0.959-8.644-1.602c-2.242-0.64,3.034-5.07,0-6.082c-2.612-0.871-5.481-0.457-7.844,0.254    c0.604-3.11,1.222-6.266,1.593-8.164l0.576-2.989l-2.655,1.496c-0.022,0.012-0.808,0.435-2.353,0.877    c-3.521-0.28-9.148-0.598-15.406-1.618c-4.248-0.692-8.105-1.596-11.225-2.375c-0.878-4.085-2.326-10.845-3.01-14.037    l-0.643-2.975l-1.856,2.419c-0.015,0.018-0.57,0.716-1.816,1.729c-3.347,1.125-8.65,3.044-14.806,4.563    c-5.895,1.456-11.277,2.225-14.785,2.78c-1.823-0.347-2.764-0.769-2.784-0.778l-2.785-1.352l0.812,2.987    c1.531,5.641,4.469,16.482,4.629,17.142c0.08,0.33,0.171,0.652,0.265,0.976c-1.784-0.673-4.438-1.172-7.56-0.131    c-3.038,1.013,2.241,5.443,0,6.083C6.903,55.705,0.5,56.664,0.5,56.664l5.763,1.922l-4.162,3.842l10.244-1.92    c0,0,4.85-1.152,3.202-4.482c-2.126-4.295,1.617-2.01,3.994-0.688c5.446,8.547,15.559,13.227,21.516,11.795l0.051-0.014    c0,0,0,0,0.001,0c1.184-0.291,2.402-0.879,3.603-1.708c3.011,7.002,8.588,12.215,13.302,13.013l0.052,0.008c0,0,0,0,0.002,0    c7.543,1.23,20.892-7.569,23.094-20.733c0.034-0.202,0.339-1.784,0.762-3.961c2.232-1.079,4.318-1.911,2.471,1.483    c-2.019,3.708,3.2,4.483,3.2,4.483l10.246,1.921l-4.163-3.843L99.439,55.861z M59.541,48.782c0,0-0.066,0.426-0.1,0.636    c-0.482,3.038-5.018,2.205-5.018,2.205s-0.214-0.031-0.541-0.106c0.239-0.863,0.438-1.744,0.594-2.64    c0.126,0.023,0.24,0.05,0.371,0.071C57.986,49.447,59.541,48.782,59.541,48.782z M40.433,64.387l0.338,1.365l-0.372-1.357    c-5.538,1.331-18.309-4.898-21.224-16.92c-0.162-0.664-2.723-10.115-3.975-14.733c3.09,0.712,8.874,1.32,17.326-0.729l0.234-0.058    c8.306-2.05,13.101-5.197,15.498-7.228c1.008,4.705,3.075,14.353,3.211,14.918C54.379,51.646,45.936,63.028,40.433,64.387z     M66.391,68.146c-0.062,0.38-0.217,1.354-0.217,1.354s-1.715-2.208-6.184-2.905c-4.469-0.7-6.787,0.876-6.787,0.876    s0.144-0.905,0.217-1.354c1.035-6.462,7.482-5.212,7.482-5.212S67.424,61.684,66.391,68.146z M75.16,51.912    c-0.482,3.035-5.018,2.206-5.018,2.206s-4.57-0.612-4.088-3.651c0.029-0.179,0.102-0.635,0.102-0.635s1.273,1.114,4.411,1.61    c3.138,0.5,4.694-0.166,4.694-0.166S75.193,51.7,75.16,51.912z"/>
	</g>
</g>
</svg>